<?xml version="1.0" encoding="UTF-8" standalone="no"?>
<!DOCTYPE svg PUBLIC "-//W3C//DTD SVG 20010904//EN"
              "http://www.w3.org/TR/2001/REC-SVG-20010904/DTD/svg10.dtd">

<svg xmlns="http://www.w3.org/2000/svg"
     width="4.16667in" height="4.16667in"
     viewBox="0 0 300 300">
  <path id="Selection"
        fill="none" stroke="black" stroke-width="1"
        d="M 136.00,95.00
           C 144.35,95.00 158.37,93.52 164.79,99.39
             171.57,105.59 170.01,117.57 170.00,126.00
             170.00,129.17 170.10,131.91 169.21,135.00
             163.48,154.95 133.41,159.87 116.00,165.67
             116.00,165.67 100.00,171.19 100.00,171.19
             97.64,172.10 94.43,173.03 93.02,175.27
             91.79,177.24 92.00,180.72 92.00,183.00
             92.00,183.00 92.00,193.00 92.00,193.00
             92.00,193.00 170.00,193.00 170.00,193.00
             170.00,193.00 170.00,213.00 170.00,213.00
             170.00,213.00 63.00,213.00 63.00,213.00
             63.00,213.00 63.00,176.00 63.00,176.00
             63.13,166.21 67.99,161.98 76.00,157.07
             82.91,152.83 110.49,144.53 120.00,141.33
             123.94,140.01 138.12,135.69 139.98,132.73
             141.21,130.76 141.00,127.28 141.00,125.00
             141.00,125.00 141.00,115.00 141.00,115.00
             141.00,115.00 63.00,115.00 63.00,115.00
             63.00,115.00 63.00,95.00 63.00,95.00
             63.00,95.00 136.00,95.00 136.00,95.00 Z" />
</svg>
