<?xml version="1.0" encoding="UTF-8" standalone="no"?>
<!DOCTYPE svg PUBLIC "-//W3C//DTD SVG 20010904//EN"
              "http://www.w3.org/TR/2001/REC-SVG-20010904/DTD/svg10.dtd">

<svg xmlns="http://www.w3.org/2000/svg"
     width="4.16667in" height="4.16667in"
     viewBox="0 0 300 300">
  <path id="3"
        fill="none" stroke="black" stroke-width="1"
        d="M 63.00,95.00
           C 63.00,95.00 63.00,114.59 63.00,114.59
             63.00,114.59 141.00,114.59 141.00,114.59
             141.00,114.59 141.00,144.41 141.00,144.41
             141.00,144.41 82.50,144.41 82.50,144.41
             82.50,144.41 82.50,164.00 82.50,164.00
             82.50,164.00 141.00,164.00 141.00,164.00
             141.00,164.00 141.00,193.41 141.00,193.41
             141.00,193.41 63.00,193.41 63.00,193.41
             63.00,193.41 63.00,213.00 63.00,213.00
             63.00,213.00 150.78,213.00 150.78,213.00
             163.79,213.00 170.30,206.44 170.30,193.31
             170.30,193.31 170.30,163.75 170.30,163.75
             170.30,157.77 167.04,154.78 160.53,154.78
             167.04,154.52 170.30,151.04 170.30,144.34
             170.30,144.34 170.30,114.73 170.30,114.73
             170.30,101.58 163.79,95.00 150.78,95.00
             150.78,95.00 63.00,95.00 63.00,95.00 Z" />
</svg>
