<?xml version="1.0" encoding="UTF-8" standalone="no"?>
<!DOCTYPE svg PUBLIC "-//W3C//DTD SVG 20010904//EN"
              "http://www.w3.org/TR/2001/REC-SVG-20010904/DTD/svg10.dtd">

<svg xmlns="http://www.w3.org/2000/svg"
     width="7.66667in" height="2.375in"
     viewBox="0 0 552 171">
  <path id="Selection"
        fill="none" stroke="black" stroke-width="1"
        d="M 245.00,17.00
           C 245.00,17.00 245.00,154.00 245.00,154.00
             245.00,154.00 166.00,154.00 166.00,154.00
             152.31,153.98 147.02,148.74 147.00,135.00
             147.00,135.00 147.00,75.00 147.00,75.00
             147.02,62.39 151.88,56.16 165.00,56.00
             165.00,56.00 215.00,56.00 215.00,56.00
             215.00,56.00 215.00,17.00 215.00,17.00
             215.00,17.00 245.00,17.00 245.00,17.00 Z
           M 20.00,54.00
           C 20.16,40.88 26.39,36.02 39.00,36.00
             39.00,36.00 109.00,36.00 109.00,36.00
             123.34,36.07 127.84,43.43 128.00,57.00
             128.00,57.00 128.00,154.00 128.00,154.00
             128.00,154.00 98.00,154.00 98.00,154.00
             98.00,154.00 98.00,115.00 98.00,115.00
             98.00,115.00 50.00,115.00 50.00,115.00
             50.00,115.00 50.00,154.00 50.00,154.00
             50.00,154.00 20.00,154.00 20.00,154.00
             20.00,154.00 20.00,54.00 20.00,54.00 Z
           M 50.00,56.00
           C 50.00,56.00 50.00,95.00 50.00,95.00
             50.00,95.00 98.00,95.00 98.00,95.00
             98.00,95.00 98.00,56.00 98.00,56.00
             98.00,56.00 50.00,56.00 50.00,56.00 Z
           M 344.00,56.00
           C 358.39,56.07 362.98,62.14 363.00,76.00
             363.00,76.00 363.00,154.00 363.00,154.00
             363.00,154.00 284.00,154.00 284.00,154.00
             270.87,153.98 265.02,148.13 265.00,135.00
             264.99,126.48 263.36,107.78 268.13,101.18
             271.80,96.11 277.15,95.07 283.00,95.00
             283.00,95.00 333.00,95.00 333.00,95.00
             333.00,95.00 333.00,76.00 333.00,76.00
             333.00,76.00 274.00,76.00 274.00,76.00
             274.00,76.00 274.00,56.00 274.00,56.00
             274.00,56.00 344.00,56.00 344.00,56.00 Z
           M 494.00,56.00
           C 505.80,56.00 524.71,52.50 529.06,67.00
             530.05,70.29 529.99,73.61 530.00,77.00
             530.00,77.00 530.00,154.00 530.00,154.00
             530.00,154.00 500.00,154.00 500.00,154.00
             500.00,154.00 500.00,76.00 500.00,76.00
             500.00,76.00 471.00,76.00 471.00,76.00
             471.00,76.00 471.00,154.00 471.00,154.00
             471.00,154.00 441.00,154.00 441.00,154.00
             441.00,154.00 441.00,76.00 441.00,76.00
             441.00,76.00 413.00,76.00 413.00,76.00
             413.00,76.00 413.00,154.00 413.00,154.00
             413.00,154.00 383.00,154.00 383.00,154.00
             383.00,154.00 383.00,56.00 383.00,56.00
             383.00,56.00 494.00,56.00 494.00,56.00 Z
           M 177.00,76.00
           C 177.00,76.00 177.00,134.00 177.00,134.00
             177.00,134.00 215.00,134.00 215.00,134.00
             215.00,134.00 215.00,76.00 215.00,76.00
             215.00,76.00 177.00,76.00 177.00,76.00 Z
           M 295.00,115.00
           C 295.00,115.00 295.00,134.00 295.00,134.00
             295.00,134.00 333.00,134.00 333.00,134.00
             333.00,134.00 333.00,115.00 333.00,115.00
             333.00,115.00 295.00,115.00 295.00,115.00 Z" />
</svg>
