<?xml version="1.0" encoding="UTF-8" standalone="no"?>
<!DOCTYPE svg PUBLIC "-//W3C//DTD SVG 20010904//EN"
              "http://www.w3.org/TR/2001/REC-SVG-20010904/DTD/svg10.dtd">

<svg xmlns="http://www.w3.org/2000/svg"
     width="5.6in" height="5.6in"
     viewBox="0 0 504 504">
  <path id="outer"
        fill="none" stroke="black" stroke-width="1"
        d="M 266.00,2.21
           C 293.75,2.04 331.98,12.84 357.00,24.75
             385.54,38.32 412.23,55.73 433.91,79.00
             465.34,112.73 488.44,156.71 497.55,202.00
             512.70,277.32 491.85,359.10 440.95,417.00
             422.51,437.98 401.47,455.48 377.00,469.14
             347.72,485.48 319.23,495.51 286.00,500.13
             279.40,501.05 272.67,501.99 266.00,502.00
             266.00,502.00 236.00,502.00 236.00,502.00
             212.09,501.72 176.98,492.29 155.00,482.85
             122.93,469.07 92.98,449.65 69.09,424.00
             4.46,354.63 -15.49,253.76 17.05,165.00
             42.39,95.91 95.28,43.37 164.00,17.42
             188.63,8.13 204.55,6.05 230.00,2.21
             230.00,2.21 266.00,2.21 266.00,2.21 Z
           M 204.00,19.45
           C 180.65,24.15 157.92,33.00 137.00,44.31
             122.10,52.37 104.29,64.51 92.00,76.09
             92.00,76.09 83.83,84.83 83.83,84.83
             83.83,84.83 75.17,93.00 75.17,93.00
             50.82,119.65 30.92,157.99 22.13,193.00
             18.78,206.33 15.06,226.39 15.00,240.00
             15.00,240.00 15.00,263.00 15.00,263.00
             15.03,280.69 20.85,310.23 26.69,327.00
             53.55,404.04 113.31,461.86 193.00,481.87
             206.01,485.14 225.72,488.84 239.00,489.00
             239.00,489.00 263.00,489.00 263.00,489.00
             263.00,489.00 275.00,488.08 275.00,488.08
             306.87,485.53 334.61,476.05 363.00,461.75
             378.41,454.00 398.30,440.43 411.00,428.83
             411.00,428.83 419.17,420.28 419.17,420.28
             424.84,414.76 427.77,412.36 433.08,406.00
             452.35,382.92 468.83,353.73 477.97,325.00
             500.20,255.11 489.13,180.19 448.92,119.00
             443.90,111.35 434.11,98.58 427.91,92.00
             427.91,92.00 419.28,83.83 419.28,83.83
             419.28,83.83 411.00,75.17 411.00,75.17
             389.32,55.49 361.43,39.46 334.00,29.32
             313.52,21.75 284.84,15.03 263.00,15.14
             263.00,15.14 234.00,15.14 234.00,15.14
             234.00,15.14 204.00,19.45 204.00,19.45 Z" />
</svg>
