<?xml version="1.0" encoding="UTF-8" standalone="no"?>
<!DOCTYPE svg PUBLIC "-//W3C//DTD SVG 20010904//EN"
              "http://www.w3.org/TR/2001/REC-SVG-20010904/DTD/svg10.dtd">

<svg xmlns="http://www.w3.org/2000/svg"
     width="5.6in" height="5.6in"
     viewBox="0 0 504 504">
  <path id="inner+mid"
        fill="none" stroke="black" stroke-width="1"
        d="M 78.25,107.00
           C 116.63,60.55 173.98,31.11 234.00,26.91
             234.00,26.91 246.00,26.00 246.00,26.00
             246.00,29.28 246.66,42.22 245.01,44.26
             243.28,46.40 238.52,45.97 236.00,46.00
             232.31,46.05 216.84,47.35 214.69,49.74
             212.51,52.15 215.60,63.59 216.19,67.00
             216.53,68.98 217.17,71.33 215.41,72.84
             214.14,73.94 208.88,74.91 207.00,75.37
             207.00,75.37 190.00,80.34 190.00,80.34
             174.54,85.71 160.36,93.32 147.00,102.72
             140.23,107.48 130.86,115.20 125.00,121.00
             123.24,122.75 116.60,130.18 114.83,130.66
             110.29,131.92 101.88,119.64 97.04,118.91
             94.14,118.48 91.71,122.05 90.08,124.00
             85.74,129.21 80.32,137.08 77.00,143.00
             70.30,141.74 64.63,137.67 59.00,134.00
             63.93,125.22 71.80,114.80 78.25,107.00 Z
           M 270.00,26.91
           C 330.25,31.12 387.21,60.36 425.75,107.00
             432.20,114.80 440.07,125.22 445.00,134.00
             439.81,137.72 433.31,141.82 427.00,143.00
             423.22,136.26 418.67,130.00 413.80,124.00
             412.19,122.02 409.90,118.47 406.96,118.91
             402.12,119.64 393.71,131.92 389.17,130.66
             387.39,130.17 380.79,122.76 379.00,121.01
             373.51,115.65 363.31,107.16 357.00,102.72
             343.64,93.32 329.46,85.71 314.00,80.34
             314.00,80.34 297.00,75.37 297.00,75.37
             295.12,74.91 289.86,73.94 288.59,72.84
             286.83,71.33 287.47,68.98 287.81,67.00
             288.40,63.59 291.49,52.15 289.31,49.74
             287.16,47.35 271.69,46.05 268.00,46.00
             265.48,45.97 260.72,46.40 258.99,44.26
             257.34,42.22 258.00,29.28 258.00,26.00
             258.00,26.00 270.00,26.91 270.00,26.91 Z
           M 280.00,113.00
           C 280.00,113.00 266.00,180.00 266.00,180.00
             276.44,180.94 286.58,186.02 295.00,192.04
             298.19,194.32 304.53,201.57 308.00,200.89
             310.56,200.39 317.65,193.60 320.00,191.58
             320.00,191.58 345.00,169.72 345.00,169.72
             347.37,167.66 354.44,161.00 356.96,160.15
             361.22,158.72 365.48,166.09 367.57,169.00
             377.31,182.57 380.92,190.81 387.00,206.00
             387.00,206.00 347.00,220.00 347.00,220.00
             347.00,220.00 322.00,228.00 322.00,228.00
             322.00,228.00 325.66,252.00 325.66,252.00
             325.66,252.00 322.00,276.00 322.00,276.00
             322.00,276.00 340.00,281.66 340.00,281.66
             340.00,281.66 386.00,297.00 386.00,297.00
             385.39,302.93 381.49,311.64 378.68,317.00
             378.68,317.00 371.00,330.00 371.00,330.00
             368.66,333.53 361.73,345.45 356.96,343.85
             354.44,343.00 347.37,336.34 345.00,334.28
             345.00,334.28 320.00,312.42 320.00,312.42
             317.65,310.40 310.56,303.61 308.00,303.11
             305.43,302.61 303.74,304.47 302.00,306.02
             297.05,310.43 295.76,311.68 290.00,315.19
             284.69,318.43 280.90,320.06 275.00,321.97
             272.85,322.67 269.32,323.35 268.11,325.43
             266.65,327.93 269.73,339.67 270.40,343.00
             270.40,343.00 280.00,391.00 280.00,391.00
             266.46,395.14 237.54,395.14 224.00,391.00
             224.00,391.00 233.60,343.00 233.60,343.00
             234.27,339.67 237.35,327.93 235.89,325.43
             234.61,323.23 230.32,322.43 228.00,321.64
             223.50,320.12 217.09,316.99 213.00,314.55
             207.84,311.47 206.35,309.89 202.00,306.02
             200.26,304.47 198.57,302.61 196.00,303.11
             193.44,303.61 186.35,310.40 184.00,312.42
             184.00,312.42 159.00,334.28 159.00,334.28
             156.63,336.34 149.56,343.00 147.04,343.85
             143.59,345.00 141.27,341.33 139.42,339.00
             134.03,332.18 129.42,324.65 125.31,317.00
             122.30,311.41 118.65,303.28 118.00,297.00
             118.00,297.00 165.00,281.33 165.00,281.33
             165.00,281.33 182.00,276.00 182.00,276.00
             182.00,276.00 178.34,252.00 178.34,252.00
             178.34,252.00 182.00,228.00 182.00,228.00
             182.00,228.00 157.00,220.00 157.00,220.00
             157.00,220.00 117.00,206.00 117.00,206.00
             123.08,190.81 126.69,182.57 136.43,169.00
             138.52,166.09 142.78,158.72 147.04,160.15
             149.56,161.00 156.63,167.66 159.00,169.72
             159.00,169.72 184.00,191.58 184.00,191.58
             186.32,193.60 193.46,200.40 196.00,200.89
             199.47,201.57 205.81,194.32 209.00,192.04
             217.16,186.21 227.90,180.91 238.00,180.00
             238.00,180.00 224.00,113.00 224.00,113.00
             236.70,108.81 267.30,108.81 280.00,113.00 Z
           M 70.00,153.00
           C 70.00,153.00 62.31,170.00 62.31,170.00
             62.31,170.00 56.00,185.00 56.00,185.00
             56.00,185.00 79.00,192.00 79.00,192.00
             79.00,192.00 74.37,210.00 74.37,210.00
             74.37,210.00 70.04,234.00 70.04,234.00
             70.04,234.00 70.04,243.00 70.04,243.00
             70.04,243.00 69.04,253.00 69.04,253.00
             69.04,253.00 69.91,261.00 69.91,261.00
             69.91,261.00 73.42,289.00 73.42,289.00
             73.42,289.00 79.00,312.00 79.00,312.00
             79.00,312.00 56.00,319.00 56.00,319.00
             56.00,319.00 70.00,351.00 70.00,351.00
             70.00,351.00 53.00,360.00 53.00,360.00
             53.00,360.00 45.31,344.00 45.31,344.00
             39.94,332.30 35.50,319.49 32.37,307.00
             22.48,267.41 23.91,222.94 36.02,184.00
             36.02,184.00 53.00,144.00 53.00,144.00
             53.00,144.00 70.00,153.00 70.00,153.00 Z
           M 469.02,188.00
           C 480.50,225.29 481.28,273.43 470.57,311.00
             467.36,322.27 463.59,333.34 458.69,344.00
             458.69,344.00 451.00,360.00 451.00,360.00
             451.00,360.00 434.00,351.00 434.00,351.00
             434.00,351.00 448.00,319.00 448.00,319.00
             448.00,319.00 425.00,312.00 425.00,312.00
             425.00,312.00 430.12,291.00 430.12,291.00
             430.12,291.00 433.96,269.00 433.96,269.00
             433.96,269.00 433.96,260.00 433.96,260.00
             433.96,260.00 434.91,250.00 434.91,250.00
             434.91,250.00 430.79,215.00 430.79,215.00
             430.79,215.00 425.00,192.00 425.00,192.00
             425.00,192.00 448.00,185.00 448.00,185.00
             448.00,185.00 434.00,153.00 434.00,153.00
             434.00,153.00 450.00,144.00 450.00,144.00
             457.24,153.11 465.46,176.40 469.02,188.00 Z
           M 76.00,360.00
           C 76.00,360.00 89.42,379.00 89.42,379.00
             90.86,380.84 93.64,384.87 96.09,385.12
             101.06,385.63 109.55,372.21 114.96,373.25
             118.00,373.83 121.87,379.46 124.17,381.72
             131.12,388.54 139.98,396.14 148.00,401.65
             160.04,409.93 174.18,417.82 188.00,422.66
             188.00,422.66 205.00,428.12 205.00,428.12
             205.00,428.12 214.70,430.70 214.70,430.70
             217.29,432.18 216.62,434.53 216.19,437.00
             215.62,440.29 212.78,451.02 214.19,453.57
             215.52,455.97 220.50,456.38 223.00,456.72
             223.00,456.72 246.00,459.00 246.00,459.00
             246.00,459.00 246.00,478.00 246.00,478.00
             246.00,478.00 234.00,477.09 234.00,477.09
             180.62,473.36 129.82,449.82 92.00,412.00
             81.94,401.94 63.87,382.19 59.00,369.00
             59.00,369.00 76.00,360.00 76.00,360.00 Z
           M 445.00,369.00
           C 440.23,381.91 421.88,402.12 412.00,412.00
             374.18,449.82 323.38,473.36 270.00,477.09
             270.00,477.09 258.00,478.00 258.00,478.00
             258.00,478.00 258.00,459.00 258.00,459.00
             258.00,459.00 281.00,456.72 281.00,456.72
             283.49,456.38 288.49,455.96 289.81,453.57
             291.03,451.34 288.34,440.07 287.81,437.00
             287.38,434.53 286.71,432.18 289.30,430.70
             289.30,430.70 299.00,428.12 299.00,428.12
             299.00,428.12 317.00,422.31 317.00,422.31
             330.77,417.30 345.04,409.38 357.00,400.96
             365.20,395.19 372.55,388.37 379.85,381.54
             382.10,379.43 386.30,374.02 389.00,373.34
             394.35,371.98 402.83,385.64 407.91,385.12
             410.36,384.87 413.14,380.84 414.58,379.00
             414.58,379.00 428.00,360.00 428.00,360.00
             428.00,360.00 445.00,369.00 445.00,369.00 Z" />
</svg>
