<?xml version="1.0" encoding="UTF-8" standalone="no"?>
<!DOCTYPE svg PUBLIC "-//W3C//DTD SVG 20010904//EN"
              "http://www.w3.org/TR/2001/REC-SVG-20010904/DTD/svg10.dtd">

<svg xmlns="http://www.w3.org/2000/svg"
     width="5.6in" height="5.6in"
     viewBox="0 0 504 504">
  <path id="Rebel"
        fill="none" stroke="black" stroke-width="1"
        d="M 264.42,16.00
           C 264.42,16.00 285.72,40.00 285.72,40.00
             288.44,43.11 295.64,49.80 294.81,54.00
             294.81,54.00 288.26,66.00 288.26,66.00
             282.92,76.35 280.83,82.95 277.71,94.00
             276.08,99.77 274.38,106.11 276.00,112.00
             281.43,101.71 293.67,91.56 303.00,84.63
             307.91,80.98 312.92,77.23 319.00,76.00
             325.58,85.19 342.55,100.18 346.00,109.00
             336.91,111.59 329.09,117.36 322.00,123.43
             299.46,142.72 285.05,177.39 285.00,207.00
             285.00,207.00 285.00,223.00 285.00,223.00
             285.03,243.76 292.12,267.12 307.00,282.00
             315.20,290.20 326.98,296.63 339.00,295.68
             355.48,294.37 375.27,284.15 388.00,274.00
             395.80,267.78 402.92,260.03 408.84,252.00
             444.27,203.98 435.37,146.36 410.19,96.00
             410.19,96.00 390.14,63.00 390.14,63.00
             386.61,58.04 378.10,47.52 376.00,43.00
             382.71,44.37 387.63,49.10 393.00,53.13
             393.00,53.13 421.00,75.58 421.00,75.58
             445.46,96.53 462.10,119.11 475.78,148.00
             479.79,156.47 483.60,164.99 486.28,174.00
             491.23,190.62 496.97,221.86 497.00,239.00
             497.00,239.00 497.00,272.00 497.00,272.00
             496.88,282.26 493.87,301.65 491.80,312.00
             476.94,386.27 431.41,447.83 362.00,479.69
             335.94,491.66 307.57,499.00 279.00,501.09
             279.00,501.09 267.00,502.00 267.00,502.00
             267.00,502.00 238.00,502.00 238.00,502.00
             214.47,501.72 183.83,493.70 162.00,485.00
             132.27,473.14 102.87,454.37 80.01,431.96
             40.33,393.06 11.97,332.52 7.91,277.00
             7.91,277.00 7.00,267.00 7.00,267.00
             7.00,267.00 7.00,244.00 7.00,244.00
             7.00,244.00 8.85,223.00 8.85,223.00
             14.21,178.13 33.00,135.19 61.20,100.00
             74.16,83.83 85.84,72.51 102.00,59.60
             108.48,54.42 118.71,46.56 126.00,43.00
             124.22,49.12 118.89,53.91 115.15,59.00
             115.15,59.00 97.42,87.00 97.42,87.00
             78.58,120.34 70.56,148.69 71.00,187.00
             71.18,202.13 78.93,225.90 86.43,239.00
             94.08,252.37 101.12,261.13 112.00,272.00
             123.16,283.15 134.39,291.08 150.00,294.58
             153.25,295.30 156.65,296.07 160.00,295.82
             163.72,295.54 170.37,293.82 174.00,292.66
             181.68,290.20 188.76,286.88 195.00,281.68
             210.36,268.86 218.91,243.67 219.00,224.00
             219.10,202.45 214.50,180.01 206.40,160.00
             203.25,152.23 198.78,142.46 193.53,136.00
             184.52,124.91 169.12,114.65 156.00,109.00
             158.58,102.42 162.20,100.13 166.72,95.00
             169.90,91.38 181.13,77.63 185.00,76.81
             188.54,76.06 195.16,80.88 198.00,82.91
             209.63,91.21 219.14,101.91 228.00,113.00
             227.71,99.72 222.50,83.90 216.74,72.00
             215.02,68.43 206.73,55.46 207.01,53.00
             207.40,49.70 216.07,40.91 218.58,38.00
             218.58,38.00 250.00,2.00 250.00,2.00
             255.42,4.62 260.43,11.37 264.42,16.00 Z" />
</svg>
