<?xml version="1.0" encoding="UTF-8" standalone="no"?>
<!DOCTYPE svg PUBLIC "-//W3C//DTD SVG 20010904//EN"
              "http://www.w3.org/TR/2001/REC-SVG-20010904/DTD/svg10.dtd">

<svg xmlns="http://www.w3.org/2000/svg"
     width="7in" height="7in"
     viewBox="0 0 504 504">
  <path id="Selection"
        fill="none" stroke="black" stroke-width="1"
        d="M 258.16,25.00
           C 266.55,23.59 270.77,26.40 277.00,25.76
             277.00,25.76 286.00,23.76 286.00,23.76
             286.00,23.76 309.00,22.02 309.00,22.02
             314.56,22.21 318.45,23.83 318.00,30.00
             321.23,32.64 321.21,38.05 321.71,42.00
             323.44,55.51 323.19,56.94 315.15,68.00
             312.78,71.26 311.53,73.90 308.00,76.00
             306.19,88.70 283.94,94.20 273.00,101.91
             266.79,106.29 258.61,113.00 255.41,120.00
             253.81,123.52 254.01,126.26 254.00,130.00
             253.98,140.15 253.35,161.22 257.00,170.00
             258.31,162.77 262.22,151.45 267.18,146.04
             277.63,134.64 300.34,126.98 309.10,109.00
             309.10,109.00 318.62,78.00 318.62,78.00
             321.13,72.05 323.43,67.66 330.00,66.00
             329.64,70.47 327.79,81.32 328.54,85.00
             328.54,85.00 336.37,104.00 336.37,104.00
             337.46,107.96 335.75,123.89 334.40,128.00
             331.35,137.30 320.79,148.36 315.23,158.00
             315.23,158.00 304.01,182.83 304.01,182.83
             299.55,188.71 289.32,195.00 287.31,202.00
             285.21,209.33 291.63,213.49 292.48,225.00
             293.32,236.24 285.47,247.83 284.11,253.58
             284.11,253.58 284.11,263.00 284.11,263.00
             284.11,263.00 284.11,296.00 284.11,296.00
             284.01,303.65 286.22,312.62 284.11,320.00
             282.33,327.54 276.37,331.73 272.90,338.01
             269.88,343.47 269.94,346.99 270.00,353.00
             270.00,353.00 270.91,363.00 270.91,363.00
             270.91,363.00 272.81,390.00 272.81,390.00
             272.81,390.00 274.00,404.00 274.00,404.00
             274.00,404.00 275.00,431.00 275.00,431.00
             275.00,431.00 276.00,445.00 276.00,445.00
             276.10,453.71 278.23,474.88 275.26,481.91
             273.48,486.13 262.60,491.07 258.60,487.97
             256.63,486.45 257.00,482.27 257.00,480.00
             257.00,480.00 257.00,465.00 257.00,465.00
             257.00,465.00 261.00,425.00 261.00,425.00
             261.04,416.67 260.05,408.24 258.87,400.00
             258.87,400.00 257.04,388.00 257.04,388.00
             257.04,388.00 259.00,367.00 259.00,367.00
             259.00,367.00 259.00,337.00 259.00,337.00
             259.00,337.00 257.00,312.00 257.00,312.00
             256.95,301.08 256.24,291.66 259.16,281.00
             259.16,281.00 269.56,253.00 269.56,253.00
             273.50,236.86 270.80,237.49 272.00,226.00
             265.67,228.32 259.65,238.59 258.04,245.00
             254.49,259.17 261.02,276.04 250.00,293.00
             250.00,293.00 241.42,267.00 241.42,267.00
             241.42,267.00 244.72,249.00 244.72,249.00
             244.66,242.32 233.14,231.68 228.00,228.00
             228.00,237.67 228.06,253.05 231.47,262.00
             231.47,262.00 242.50,283.00 242.50,283.00
             242.50,283.00 245.17,315.00 245.17,315.00
             245.17,315.00 246.51,326.00 246.51,326.00
             246.51,326.00 248.70,335.00 248.70,335.00
             248.70,335.00 249.96,359.00 249.96,359.00
             249.96,359.00 249.96,370.00 249.96,370.00
             249.96,370.00 249.00,380.00 249.00,380.00
             249.00,380.00 249.00,394.00 249.00,394.00
             249.00,394.00 248.00,413.00 248.00,413.00
             248.00,413.00 249.00,426.00 249.00,426.00
             249.00,426.00 249.00,447.00 249.00,447.00
             249.00,447.00 246.00,484.00 246.00,484.00
             242.65,482.41 241.68,481.57 239.00,478.98
             236.18,476.26 232.49,472.66 231.01,469.00
             229.00,464.05 231.22,448.04 232.00,442.00
             232.00,442.00 238.09,373.00 238.09,373.00
             238.09,373.00 241.00,348.00 241.00,348.00
             241.06,342.90 241.46,338.41 238.35,334.02
             233.94,327.78 217.14,319.92 213.17,312.00
             211.74,309.14 211.97,305.16 212.00,302.00
             212.00,302.00 214.96,275.00 214.96,275.00
             214.96,275.00 214.96,266.00 214.96,266.00
             214.96,266.00 216.00,250.00 216.00,250.00
             215.99,242.63 215.78,239.21 211.24,233.00
             208.82,229.70 203.77,225.29 202.80,222.00
             201.59,219.17 202.95,212.61 202.80,209.00
             203.05,204.08 203.97,194.99 200.57,191.28
             196.10,186.39 190.91,189.93 182.00,181.90
             175.66,176.18 169.18,169.72 165.37,162.00
             165.37,162.00 160.47,148.00 160.47,148.00
             157.94,142.28 154.43,140.73 154.04,134.00
             153.46,123.76 160.88,103.79 166.31,95.09
             168.93,90.88 178.50,78.70 179.96,91.00
             179.96,91.00 179.96,96.00 179.96,96.00
             179.96,96.00 179.96,116.00 179.96,116.00
             180.00,118.08 179.89,121.07 180.60,123.00
             181.98,126.74 190.66,134.06 194.01,136.92
             194.01,136.92 218.83,156.89 218.83,156.89
             218.83,156.89 231.00,169.00 231.00,169.00
             231.00,169.00 222.58,127.00 222.58,127.00
             221.26,122.17 219.99,115.03 217.30,111.00
             217.30,111.00 189.00,82.00 189.00,82.00
             185.99,78.99 180.04,73.49 178.14,70.00
             173.41,61.34 173.66,37.05 186.00,35.00
             189.33,28.68 198.05,25.61 205.00,26.19
             207.37,26.38 212.43,27.29 213.73,29.48
             214.96,31.54 213.73,34.86 213.14,37.00
             212.08,40.80 208.64,49.57 209.35,52.96
             210.65,59.10 220.79,60.91 222.96,64.41
             224.86,67.46 222.08,74.52 221.23,78.00
             220.99,80.66 221.02,82.35 221.23,85.00
             224.06,80.98 231.13,67.99 230.89,63.02
             230.58,56.67 222.29,58.45 219.60,51.00
             218.53,48.04 219.57,43.90 220.52,41.00
             224.09,30.05 230.53,25.74 242.00,29.00
             244.90,25.74 253.74,25.74 258.16,25.00 Z
           M 222.00,53.00
           C 222.00,53.00 223.00,54.00 223.00,54.00
             223.00,54.00 223.00,53.00 223.00,53.00
             223.00,53.00 222.00,53.00 222.00,53.00 Z
           M 223.00,54.00
           C 223.00,54.00 224.00,55.00 224.00,55.00
             224.00,55.00 224.00,54.00 224.00,54.00
             224.00,54.00 223.00,54.00 223.00,54.00 Z
           M 318.00,61.00
           C 318.00,61.00 319.00,62.00 319.00,62.00
             319.00,62.00 319.00,61.00 319.00,61.00
             319.00,61.00 318.00,61.00 318.00,61.00 Z
           M 232.00,64.00
           C 232.00,64.00 233.00,65.00 233.00,65.00
             233.00,65.00 233.00,64.00 233.00,64.00
             233.00,64.00 232.00,64.00 232.00,64.00 Z
           M 179.00,70.00
           C 179.00,70.00 180.00,71.00 180.00,71.00
             180.00,71.00 180.00,70.00 180.00,70.00
             180.00,70.00 179.00,70.00 179.00,70.00 Z
           M 222.00,85.00
           C 222.00,85.00 223.00,86.00 223.00,86.00
             223.00,86.00 223.00,85.00 223.00,85.00
             223.00,85.00 222.00,85.00 222.00,85.00 Z
           M 267.00,104.00
           C 267.00,104.00 268.00,105.00 268.00,105.00
             268.00,105.00 268.00,104.00 268.00,104.00
             268.00,104.00 267.00,104.00 267.00,104.00 Z
           M 290.00,133.00
           C 290.00,133.00 291.00,134.00 291.00,134.00
             291.00,134.00 291.00,133.00 291.00,133.00
             291.00,133.00 290.00,133.00 290.00,133.00 Z
           M 197.00,141.00
           C 197.00,141.00 198.00,142.00 198.00,142.00
             198.00,142.00 198.00,141.00 198.00,141.00
             198.00,141.00 197.00,141.00 197.00,141.00 Z
           M 363.79,238.01
           C 356.68,229.08 341.65,214.22 333.04,206.17
             327.99,201.45 319.28,195.30 319.18,188.00
             319.05,178.18 330.67,158.02 336.43,150.00
             338.70,146.84 344.74,137.78 349.00,142.00
             355.14,143.16 360.65,150.63 365.00,155.00
             365.00,155.00 395.76,191.00 395.76,191.00
             399.47,195.85 405.48,203.95 406.00,210.00
             410.70,213.38 415.18,227.20 417.17,233.00
             421.41,245.40 426.94,261.94 427.00,275.00
             427.00,275.00 427.00,298.00 427.00,298.00
             426.98,307.95 421.22,328.88 410.00,331.00
             407.25,335.73 401.99,337.90 397.00,339.66
             388.16,342.75 374.45,344.59 365.00,344.96
             358.06,345.23 350.08,343.00 344.00,339.68
             342.13,338.65 337.71,336.21 339.17,333.47
             340.26,331.41 343.98,331.19 346.00,330.95
             351.37,330.31 356.80,329.62 362.00,328.09
             367.09,326.59 370.82,323.43 376.00,323.00
             378.81,317.06 381.79,316.03 384.78,311.00
             388.77,304.28 390.03,295.67 390.00,288.00
             389.97,281.29 389.12,278.10 386.22,272.00
             383.92,267.19 381.04,264.41 381.00,259.00
             375.85,256.16 368.03,243.34 363.79,238.01 Z
           M 353.00,146.00
           C 353.00,146.00 354.00,147.00 354.00,147.00
             354.00,147.00 354.00,146.00 354.00,146.00
             354.00,146.00 353.00,146.00 353.00,146.00 Z
           M 262.00,155.00
           C 262.00,155.00 263.00,156.00 263.00,156.00
             263.00,156.00 263.00,155.00 263.00,155.00
             263.00,155.00 262.00,155.00 262.00,155.00 Z
           M 217.00,157.00
           C 217.00,157.00 218.00,158.00 218.00,158.00
             218.00,158.00 218.00,157.00 218.00,157.00
             218.00,157.00 217.00,157.00 217.00,157.00 Z
           M 77.96,296.00
           C 77.71,290.16 76.33,285.22 77.21,279.00
             77.21,279.00 85.66,254.00 85.66,254.00
             92.86,233.26 102.75,208.01 118.04,192.00
             125.39,184.31 131.66,179.00 141.00,173.86
             144.65,171.86 149.73,169.46 154.00,170.31
             157.88,171.09 167.37,179.77 171.00,182.76
             171.00,182.76 186.83,196.05 186.83,196.05
             188.50,197.72 191.37,200.63 191.55,203.09
             191.79,206.21 189.00,208.93 186.98,210.96
             181.74,216.26 175.88,221.09 170.00,225.65
             154.86,237.39 149.36,243.79 136.85,258.00
             130.49,265.21 123.44,272.19 119.32,281.00
             106.99,307.35 117.31,345.60 151.00,346.00
             151.00,346.00 169.00,346.00 169.00,346.00
             170.94,346.00 174.72,345.75 176.26,346.99
             180.88,350.73 175.91,359.24 171.96,361.64
             165.01,365.86 155.30,366.38 147.42,366.92
             147.42,366.92 140.00,367.95 140.00,367.95
             135.29,368.14 122.14,365.43 118.00,363.32
             113.44,360.99 105.76,353.74 102.00,350.00
             97.08,345.10 88.77,338.16 88.00,331.00
             79.13,325.40 78.38,305.54 77.96,296.00 Z
           M 160.00,175.00
           C 160.00,175.00 161.00,176.00 161.00,176.00
             161.00,176.00 161.00,175.00 161.00,175.00
             161.00,175.00 160.00,175.00 160.00,175.00 Z
           M 304.00,180.00
           C 304.00,180.00 305.00,181.00 305.00,181.00
             305.00,181.00 305.00,180.00 305.00,180.00
             305.00,180.00 304.00,180.00 304.00,180.00 Z
           M 232.00,228.00
           C 232.00,228.00 233.00,229.00 233.00,229.00
             233.00,229.00 233.00,228.00 233.00,228.00
             233.00,228.00 232.00,228.00 232.00,228.00 Z
           M 234.00,231.00
           C 234.00,231.00 235.00,232.00 235.00,232.00
             235.00,232.00 235.00,231.00 235.00,231.00
             235.00,231.00 234.00,231.00 234.00,231.00 Z
           M 239.00,237.00
           C 239.00,237.00 240.00,238.00 240.00,238.00
             240.00,238.00 240.00,237.00 240.00,237.00
             240.00,237.00 239.00,237.00 239.00,237.00 Z
           M 127.00,266.00
           C 127.00,266.00 128.00,267.00 128.00,267.00
             128.00,267.00 128.00,266.00 128.00,266.00
             128.00,266.00 127.00,266.00 127.00,266.00 Z
           M 80.00,275.00
           C 80.00,275.00 81.00,276.00 81.00,276.00
             81.00,276.00 81.00,275.00 81.00,275.00
             81.00,275.00 80.00,275.00 80.00,275.00 Z
           M 375.00,324.00
           C 375.00,324.00 376.00,325.00 376.00,325.00
             376.00,325.00 376.00,324.00 376.00,324.00
             376.00,324.00 375.00,324.00 375.00,324.00 Z
           M 244.00,325.00
           C 244.00,325.00 245.00,326.00 245.00,326.00
             245.00,326.00 245.00,325.00 245.00,325.00
             245.00,325.00 244.00,325.00 244.00,325.00 Z
           M 220.89,397.96
           C 220.89,397.96 213.00,348.00 213.00,348.00
             213.00,348.00 213.00,336.00 213.00,336.00
             213.00,334.14 212.77,330.07 214.02,328.64
             216.92,325.34 223.09,332.02 224.90,334.00
             229.79,339.36 230.69,344.96 230.96,352.00
             230.96,352.00 230.00,368.00 230.00,368.00
             230.00,368.00 228.00,400.00 228.00,400.00
             228.00,400.00 228.00,409.00 228.00,409.00
             228.00,409.00 227.00,420.00 227.00,420.00
             222.48,416.87 221.67,403.57 220.89,397.96 Z
           M 222.00,334.00
           C 222.00,334.00 223.00,335.00 223.00,335.00
             223.00,335.00 223.00,334.00 223.00,334.00
             223.00,334.00 222.00,334.00 222.00,334.00 Z
           M 292.00,333.00
           C 292.00,333.00 297.00,369.00 297.00,369.00
             297.00,369.00 297.00,388.00 297.00,388.00
             297.00,388.00 296.00,404.00 296.00,404.00
             296.00,404.00 296.00,424.00 296.00,424.00
             296.00,424.00 295.09,434.00 295.09,434.00
             294.53,442.11 295.43,451.60 286.00,455.00
             284.32,448.10 286.01,437.87 286.00,430.00
             286.00,430.00 283.15,405.00 283.15,405.00
             283.15,405.00 278.31,364.58 278.31,364.58
             277.40,358.05 271.93,339.94 281.00,338.00
             283.77,332.96 286.66,333.12 292.00,333.00 Z
           M 279.00,338.00
           C 279.00,338.00 280.00,339.00 280.00,339.00
             280.00,339.00 280.00,338.00 280.00,338.00
             280.00,338.00 279.00,338.00 279.00,338.00 Z
           M 95.00,341.00
           C 95.00,341.00 96.00,342.00 96.00,342.00
             96.00,342.00 96.00,341.00 96.00,341.00
             96.00,341.00 95.00,341.00 95.00,341.00 Z
           M 226.00,410.00
           C 226.00,410.00 227.00,411.00 227.00,411.00
             227.00,411.00 227.00,410.00 227.00,410.00
             227.00,410.00 226.00,410.00 226.00,410.00 Z" />
</svg>
